# xmcd
#
# Track frame offsets:
#	150
#	20360
#	36743
#	52440
#	69054
#	86105
#	103621
#	118415
#	136881
#	153419
#	169442
#	186998
#	218365
#
# Disc length: 4440 seconds
#
# Revision: 0
# Processed by: cddbd v1.5.1PL0 Copyright (c) Steve Scherf et al.
# Submitted via: dBpowerAMP V4.0
#
DISCID=c011560d
DTITLE=James Sampson - don't give up
DYEAR=2004
DGENRE=Soul
TTITLE0=Don't give up
TTITLE1=Deeper love
TTITLE2=Slow Down
TTITLE3=I count the minutes
TTITLE4=Heaven
TTITLE5=Ain't it funny
TTITLE6=Baby I can't stop
TTITLE7=On the wings of love
TTITLE8=Forgive me
TTITLE9=Love with the one you love
TTITLE10=Your love
TTITLE11=All night long
TTITLE12=DATA
EXTD=
EXTT0=
EXTT1=
EXTT2=
EXTT3=
EXTT4=
EXTT5=
EXTT6=
EXTT7=
EXTT8=
EXTT9=
EXTT10=
EXTT11=
EXTT12=
PLAYORDER=
